<svg width="408" height="612" viewBox="0 0 408 612" fill="none" xmlns="http://www.w3.org/2000/svg">
<path d="M226.264 87.8555L227.758 88.4531L232.24 92.6367L236.125 96.5215L238.814 99.8086L241.504 102.797L243.596 105.486L246.285 109.072L250.17 114.451L256.744 124.312L260.031 129.393L265.709 138.955L268.697 144.035L272.582 150.908L274.375 153.598L277.064 155.988L279.754 158.08L283.938 161.666L290.811 168.539L293.5 171.826L297.086 176.607L300.672 182.584L301.867 183.779L306.35 182.584L318.602 179.895L328.762 177.803L337.129 176.309H338.324V177.205L331.75 178.699L322.188 180.492L303.361 184.676H301.867L305.752 192.445L309.936 202.008L314.418 213.064L318.602 224.121L324.279 240.855L327.865 252.211L331.152 263.566L335.037 277.611L338.623 291.656L341.91 305.701L343.703 314.367L346.094 327.516L347.887 340.664L349.082 351.721L349.68 359.49L349.979 366.363V387.879L349.381 396.246L348.484 404.613L346.393 417.463L342.807 433.301L338.623 447.346L334.439 459.299L329.658 470.953L327.268 476.033L324.279 481.711L320.395 488.285L318.004 491.871V492.469L321.59 494.561L324.877 497.25L327.566 499.939L329.359 503.525V505.617L327.865 508.008L325.475 510.1L318.602 513.984L314.717 515.777L307.844 517.869L301.27 519.064L295.592 519.662L277.662 520.559L243.596 522.053L219.689 523.248L211.621 523.547H192.795L179.945 522.352L168.59 520.559L157.234 518.467L144.684 515.777L137.213 513.984L126.754 511.295L115.697 508.008L104.342 504.123L94.7793 500.238L89.998 497.848H87.3086L59.8164 500.537L43.3809 502.629L26.6465 505.318L15.8887 507.709L7.22266 510.398L3.93555 512.191L2.14258 513.686L1.84375 515.479L2.74023 516.973L5.72852 519.064L11.1074 521.455L21.2676 524.443L33.2207 527.133L46.3691 529.523L66.3906 532.512L96.5723 536.695L123.168 540.58L147.373 544.465L163.809 547.154L185.025 551.039L204.15 554.924L225.666 559.705L245.688 564.785L259.732 568.67L273.777 572.854L290.213 578.232L301.867 582.416L312.326 586.301L313.223 586.6V587.197H286.328L259.732 586.898L234.631 586.301L211.621 585.404L175.463 583.312L147.971 581.221L134.523 580.025L111.215 577.635L87.6074 574.646L71.7695 572.256L57.127 569.865L39.1973 566.279L25.1523 562.992L14.0957 560.004L4.83203 557.314L0.0507812 555.521V481.113L9.01562 478.424L17.6816 476.332L31.1289 473.643L51.4492 470.654L69.0801 468.562L81.0332 467.367L83.125 467.068V466.172L80.1367 460.494L77.1484 453.023L74.7578 445.254L72.666 435.99L71.4707 427.324L70.873 420.152V401.625L71.7695 391.166L73.2637 381.305L75.3555 371.145L78.0449 360.088L81.9297 347.238L87.3086 331.699L91.791 320.045L96.2734 309.287L101.652 296.736L107.031 284.783L112.111 273.727L116.594 264.463L118.984 259.084L121.076 254.9L121.973 252.809L118.686 254.602L113.008 258.188L108.227 261.176L98.0664 268.049H97.1699L97.4688 266.854L103.445 262.67L110.916 257.889L117.49 253.705L122.869 250.119L124.961 246.832V243.844L124.363 237.568V223.523L125.559 214.26L126.754 207.984L127.352 206.49L127.053 204.398L124.662 193.641L122.869 184.377L120.479 168.24L119.582 158.379L119.283 151.805V140.748L119.881 132.381L121.076 124.312L121.674 122.818L123.168 123.416L126.754 126.404L130.041 129.094L134.225 132.68L137.512 135.668L140.799 138.357L144.086 141.346L146.477 143.438L150.361 147.023L152.752 149.115L155.74 151.805L159.326 155.092L161.717 157.184L163.211 156.586L165.9 154.793L169.188 153L177.854 148.518L184.727 145.529L191.898 142.84L199.07 140.748L208.035 138.656H210.426L210.725 138.955L211.023 138.357L215.805 137.76L216.402 138.357L217 137.76H219.988V130.588L220.885 117.141L222.379 106.084L224.172 96.2227L225.965 88.1543L226.264 87.8555Z" fill="white"/>
<path d="M268.695 449.736L272.58 450.035L285.131 451.828L291.705 452.426H306.348L316.508 451.529H318.301L318.6 451.828V453.92L315.014 465.873L310.83 479.021L308.439 487.09V488.883L313.221 490.975L316.209 492.17L317.404 492.469L317.703 491.871L318.6 492.768L321.887 494.859L324.875 497.25L327.564 499.939L329.357 503.525V505.617L327.863 508.008L325.473 510.1L318.6 513.984L314.715 515.777L307.842 517.869L301.268 519.064L295.59 519.662L277.66 520.559L243.594 522.053L219.688 523.248L211.619 523.547H192.793L179.943 522.352L168.588 520.559L157.232 518.467L144.682 515.777L137.211 513.984L126.752 511.295L115.695 508.008L104.34 504.123L94.7773 500.238L91.1914 498.445V497.549L93.2832 497.25L100.754 496.354H104.938L109.121 499.641L113.305 502.031L116.891 503.525L118.684 503.824L120.775 501.135L124.66 498.744L127.648 497.25L132.131 495.756L137.211 494.561L140.498 493.963H149.164L153.945 495.457L157.232 497.25L160.221 499.939L162.312 502.33L163.807 504.721L169.783 505.02L170.979 506.215L172.771 509.502L174.863 511.893L178.15 514.283L181.736 516.375L187.713 518.467L190.402 519.064H191.896L192.195 514.881L192.793 515.479L193.689 519.064L193.988 519.363H200.861L201.758 518.766L202.355 516.674H202.654L203.252 518.766L205.643 518.467L211.619 516.375L211.918 514.881L210.424 510.398L209.229 507.709L209.826 507.111L227.457 506.812L238.514 506.514L253.754 505.617L263.018 504.422L264.811 504.123H268.098L268.396 505.617L268.098 507.41V514.283L269.293 515.777L271.086 516.375L273.775 516.674L274.373 511.893L274.971 511.594V515.479L275.867 516.674L277.361 516.973L283.936 516.674L285.729 516.375L286.625 512.49L287.223 512.191L287.521 515.18L289.016 515.479L293.797 513.686L297.682 511.594L300.67 508.904L302.463 506.812L304.256 502.031L304.854 500.238V498.445H292.9L283.637 497.549L273.775 495.756L271.385 494.561L271.086 493.963L269.891 474.539L268.994 459.598L268.695 454.518V449.736Z" fill="#00ACA3"/>
<path d="M204.447 450.334H205.045V476.631L204.746 494.561L203.85 495.457L200.861 496.354L194.586 497.848L187.713 499.043L181.139 499.641H170.381L167.99 499.043L166.496 496.652L163.508 489.48L160.818 483.504L156.336 473.344L152.75 464.977L148.566 455.713L147.969 453.322L155.141 453.621L159.324 453.92H178.15L188.609 453.023L198.471 451.529L204.447 450.334Z" fill="#00ACA3"/>
<path d="M172.475 173.021H177.854L179.049 173.619L181.141 173.918L184.727 175.412L188.611 178.102L191.002 180.193L193.99 184.377L195.783 188.262L196.979 192.445L196.68 194.238H197.277V199.617L196.979 200.812L196.68 202.904L195.783 205.594L194.588 208.881L194.289 209.479H193.691L193.393 210.973L192.795 211.271L192.496 212.168H191.898L191.6 213.363L189.807 215.455L188.611 216.053L187.715 217.248H186.818V217.846L185.324 218.742H184.428V219.34L180.543 220.834L179.348 221.432L176.658 221.73V222.029L169.188 221.73L165.004 220.834L162.314 220.236L159.625 218.742L156.936 216.949L153.648 213.363L151.855 210.973L150.361 209.479L149.465 207.686L148.867 204.996L148.27 204.1L147.971 201.111L147.672 199.02V196.031L148.568 191.25L149.465 188.262L151.855 184.078L154.545 180.791L158.131 177.504L162.613 175.113L167.395 173.619L168.59 173.32L172.475 173.021Z" fill="#1C1A17"/>
<path d="M121.373 124.014L122.568 125.209L125.557 129.691L128.246 133.875L132.729 140.748L137.809 149.115L141.693 155.391L144.682 160.471L146.475 163.459L148.865 167.344V168.838L145.578 172.424L143.486 174.814L139.303 180.492L136.314 185.273L133.625 190.055L130.338 197.525L127.947 204.398L127.35 204.996L126.752 203.502L124.361 192.146L122.867 184.377L120.477 168.24L119.58 158.379L119.281 151.805V140.748L119.879 132.381L121.074 124.312L121.373 124.014Z" fill="#F58458"/>
<path d="M227.16 88.1543L229.551 89.9473L236.125 96.5215L238.814 99.8086L241.504 102.797L243.596 105.486L246.285 109.072L250.17 114.451L256.744 124.312L260.031 129.393L265.709 138.955L268.697 144.035L272.582 150.908L273.479 152.402V153L271.984 152.701L267.801 150.012L261.824 146.725L252.561 142.84L245.986 140.748L238.516 138.955L236.125 138.357L234.033 131.186L231.045 119.232L228.953 108.475L227.459 97.7168L227.16 94.4297V88.1543Z" fill="#F48458"/>
<path d="M242.398 148.518H248.375L252.857 149.414L256.443 150.908L259.432 152.701L260.926 153.299L262.719 154.793L264.213 156.885L265.408 158.379L266.902 160.172L268.695 163.459L269.592 166.148L270.488 171.229V174.217L269.592 179.895L267.5 184.676L266.305 186.469L264.512 187.963L262.42 190.354L259.73 192.744L257.938 194.238L256.145 195.135L254.65 195.732L251.363 196.629L249.271 196.928V197.227H242.1L240.904 196.928L238.812 196.629L232.836 194.238L229.549 192.146L226.859 189.457L225.066 187.365L224.469 186.768V185.871H223.871L221.779 182.285L221.182 180.193L220.883 179.297L222.078 179.895L224.17 182.883L226.859 185.871L231.043 187.963L234.031 188.859L237.916 189.158L242.1 188.262L245.984 186.469L248.674 184.377L250.766 181.986L252.857 177.205L253.455 174.814V169.436L252.26 165.551L250.467 162.264L247.777 159.275L243.594 156.586L240.307 155.391L238.514 155.092H233.732L229.549 156.287L226.859 157.781L225.963 157.482L228.055 155.092L229.25 153.896L230.445 153L235.227 150.609L238.514 149.115L239.111 148.816L242.398 148.518Z" fill="#FCFBF9"/>
<path d="M172.475 173.021H177.854L179.049 173.619L182.934 175.113L183.232 175.711L177.256 175.412L173.969 176.01L170.084 177.504L166.797 179.895L164.705 181.986L162.314 186.17L161.418 189.457V195.732L162.613 199.617L164.705 202.904L167.395 205.893L170.682 207.984L174.268 209.479L175.762 209.777H181.738L186.221 208.283L189.209 206.49L191.6 204.398L194.289 199.916L195.484 195.135L196.082 191.549L196.979 192.445L196.68 194.238H197.277V199.617L196.979 200.812L196.68 202.904L195.783 205.594L194.588 208.881L194.289 209.479H193.691L193.393 210.973L192.795 211.271L192.496 212.168H191.898L191.6 213.363L189.807 215.455L188.611 216.053L187.715 217.248H186.818V217.846L185.324 218.742H184.428V219.34L180.543 220.834L179.348 221.432L176.658 221.73V222.029L169.188 221.73L165.004 220.834L162.314 220.236L159.625 218.742L156.936 216.949L153.648 213.363L151.855 210.973L150.361 209.479L149.465 207.686L148.867 204.996L148.27 204.1L147.971 201.111L147.672 199.02V196.031L148.568 191.25L149.465 188.262L151.855 184.078L154.545 180.791L158.131 177.504L162.613 175.113L167.395 173.619L168.59 173.32L172.475 173.021Z" fill="#FDFCFB"/>
<path d="M233.734 154.793H238.516L242.102 155.689L245.688 157.482L248.676 159.873L250.768 162.264L253.158 167.045L253.756 169.436V174.814L252.561 178.699L250.768 182.285L248.078 185.273L245.688 187.066L241.205 188.859L237.918 189.457L234.033 189.158L229.551 187.664L226.562 185.871L224.471 183.779L222.379 180.791L220.586 178.699L219.988 175.711V169.436L221.184 164.654L223.574 159.873L225.666 157.184L226.264 156.885V157.482L228.057 156.885L230.447 155.689L233.734 154.793Z" fill="#1D1A17"/>
<path d="M358.941 517.869L360.436 518.467L365.516 521.455L368.803 523.846L369.699 524.443L369.4 525.938L366.412 529.822L363.125 534.305L358.344 540.58L355.057 545.062L350.275 551.338L346.092 557.016L341.311 563.291L337.127 568.969L333.541 573.75L332.346 573.451L329.059 571.061L329.656 569.566L333.242 562.992L337.426 555.82L339.816 551.338L344 544.166L347.586 537.592L349.977 533.408L353.861 526.535L357.148 520.857L358.643 518.168L358.941 517.869Z" fill="#FEFEFD"/>
<path d="M341.312 124.91H342.508L344.898 132.082L346.691 138.955L347.289 141.943V143.438L345.197 144.035L327.865 147.023L312.924 150.012L310.533 150.609H308.74L306.051 144.932L306.35 144.035L310.533 141.943L317.406 138.059L324.578 134.174L331.451 130.289L339.818 125.807L341.312 124.91Z" fill="#FEFEFD"/>
<path d="M325.174 101.303L326.369 101.602L328.76 103.693L332.346 106.98L335.633 110.566L337.426 112.658L337.127 113.854L331.449 117.738L327.564 120.727L322.783 124.014L317.703 127.6L312.324 131.484L308.141 134.473L303.359 138.059L302.164 137.461L299.176 134.771L297.98 133.576L298.578 132.082L302.463 127.898L305.152 124.611L307.842 121.623L310.531 118.336L313.221 115.348L315.91 112.061L318.898 108.773L321.588 105.486L325.174 101.303Z" fill="#FEFEFD"/>
<path d="M179.346 173.619L182.035 174.217L186.219 176.309L189.207 178.699L191 180.193L193.988 184.377L195.781 188.262L196.678 190.951V192.744L196.08 193.641L194.885 199.02L193.092 202.605L191 205.295L188.311 207.387L184.725 209.18L181.736 210.076H175.76L171.875 208.881L168.588 207.088L165.002 203.801L162.91 200.514L161.715 197.824L161.117 195.732V189.457L162.312 185.572L164.703 181.688L167.393 178.998L170.68 176.906L174.863 175.412L179.346 175.113L182.932 175.412L179.346 173.918V173.619ZM179.346 178.4L176.059 179.297L173.369 180.791L171.576 182.285L169.783 184.975L168.588 187.664L168.289 189.158V194.238L169.484 197.525L171.576 200.514L173.668 202.307L177.254 204.1L178.748 204.398H183.23L187.115 203.203L189.506 201.41L191.598 199.318L192.793 196.928L193.988 192.744V189.158L192.494 184.676L190.701 182.285L188.311 180.492L185.322 178.998L182.932 178.4H179.346Z" fill="#01ABA2"/>
<path d="M233.734 154.793H238.516L242.102 155.689L245.688 157.482L248.676 159.873L250.768 162.264L253.158 167.045L253.756 169.436V174.814L252.561 178.699L250.768 182.285L248.078 185.273L245.688 187.066L241.205 188.859L237.918 189.457L234.033 189.158L229.551 187.664L226.562 185.871L224.471 183.779L222.379 180.791L220.586 178.699L219.988 175.711V169.436L221.184 164.654L223.574 159.873L225.666 157.184L226.264 156.885V157.482L228.057 156.885L230.447 155.689L233.734 154.793ZM231.941 159.275L228.355 160.77L225.367 163.16L223.574 165.551L222.379 168.24L222.08 169.436V175.113L222.977 178.102L225.367 181.389L227.758 183.48L231.941 185.273L233.436 185.572H236.424L240.607 184.377L243.895 182.285L245.986 179.596L247.48 176.01L248.078 173.619V170.93L247.182 167.344L245.09 163.758L242.699 161.367L239.412 159.873L237.619 159.275H231.941Z" fill="#00ABA2"/>
<path d="M268.398 449.139L271.686 449.438L284.535 451.23L296.488 451.828H300.373L313.223 451.23L315.613 450.932H319.199L319.498 451.23V453.621L315.314 467.666L311.729 479.32L309.936 484.998L309.637 486.193V488.285L313.521 489.779L315.912 490.975H318.004V491.871H317.406V492.469L315.314 492.17L309.936 489.779L308.143 488.883L308.441 486.193L312.326 473.344L316.211 461.092L318.303 453.92V451.828L312.924 452.127L306.35 452.725H291.707L282.443 451.828L268.697 449.736L269.893 468.264L270.789 484.4L271.387 493.963L272.283 494.859L275.271 495.756L285.73 497.549L292.902 498.146H304.855L305.154 498.445L304.855 501.135L303.062 506.215L301.867 508.008L298.58 511.295L295.592 513.088L290.811 515.18L289.018 515.777L287.523 515.479L287.225 515.18L286.926 512.49L285.73 516.375L283.938 516.973L277.363 517.271L275.57 516.674L274.674 515.479V511.893L274.076 516.076L273.777 516.674H271.088L268.996 515.777L267.801 514.283V507.41L268.1 504.123L263.02 504.721L253.756 505.916L238.516 506.812L227.459 507.111L209.828 507.41L209.529 508.008L211.621 512.789L212.219 514.881L211.92 516.375L209.23 517.57L204.449 519.064L202.955 518.766L202.357 517.271L201.76 519.064L200.863 519.662H193.99L193.094 518.168L192.496 515.479L192.197 519.064L191.898 519.363L188.91 519.064L184.129 517.57L180.543 516.076L176.359 513.387L174.268 511.594L171.877 508.605L170.383 505.617L169.785 505.318L163.809 505.02L161.418 501.732L159.326 499.342L157.234 497.549L152.453 495.158L149.166 494.262H140.5L134.225 495.457L128.547 497.25L125.26 498.744L121.674 500.836L120.18 502.031L118.686 504.123L115.996 503.525L110.916 501.135L106.732 498.146L104.939 496.652H100.756L92.3887 497.549H91.1934V498.146L89.6992 497.549L90.8945 496.951L93.8828 496.354L101.354 495.457H105.238L107.629 497.25V497.848L109.123 498.445L112.111 500.537L116.893 502.629L118.387 502.33L120.479 500.238L126.455 496.951L131.834 495.158L139.006 493.664L141.994 493.365H148.568L152.752 494.262L156.936 496.055L159.625 498.146L162.314 500.836L164.107 503.525L164.705 503.824L169.785 504.123L171.279 505.02L173.67 509.203L177.256 512.789L181.738 515.479L186.221 517.271L189.807 518.168H191.301V515.777L190.105 511.893V510.1L191.301 510.398L192.795 512.789L193.99 516.674L194.289 518.766L201.162 518.467L200.863 514.881V510.697H202.059L202.955 511.893L203.553 513.984L203.852 517.869L204.748 518.168L211.023 516.076L211.322 514.582L209.828 510.697L208.035 507.709L208.334 506.812L208.932 506.514L217.896 506.215L237.619 505.916L251.664 505.318L260.928 504.123L266.904 503.227L268.697 503.525L268.996 503.824V514.582L270.49 515.18L273.18 515.479L273.777 510.996L274.674 509.203H275.869L276.168 515.777L276.467 516.076H281.248L284.834 515.479L285.432 514.881L286.029 511.893L286.926 509.502L288.121 509.801L288.42 514.582L291.109 513.984L294.695 512.49L297.385 510.697L300.373 508.008L302.465 504.721L303.66 501.135L303.959 499.043L298.879 499.342H293.799L284.535 498.445L272.881 496.354L271.088 495.457L270.49 494.561L268.996 470.953L268.398 458.104V449.139Z" fill="#103F3B"/>
<path d="M336.531 150.609H338.623L338.922 155.092V166.148L335.635 165.551L318.004 161.666L313.521 160.77L312.924 160.471L312.625 154.793L324.578 152.701L336.531 150.609Z" fill="#FDFDFC"/>
<path d="M194.586 219.041L196.379 219.34L196.08 219.938L193.092 220.834L192.195 221.133L191.598 220.834V221.432L189.506 221.73L187.115 222.627L185.92 222.926L185.322 222.627V223.225L182.334 224.121L181.736 224.42L181.139 224.121L180.84 224.719L179.943 225.018L179.346 224.719L179.047 225.316L173.07 227.707L172.174 228.006L164.105 231.293L155.738 234.879L145.578 239.66L138.705 243.246L130.039 247.729L124.959 250.717L122.568 252.51L119.58 254.004L113.006 258.188L108.225 261.176L98.0645 268.049H97.168L97.4668 266.854L103.443 262.67L110.914 257.889L117.488 253.705L122.867 250.119L123.764 249.223L124.959 248.924L128.545 247.131L133.924 244.143L139.9 240.855L144.682 238.465L153.945 233.982L160.52 231.293L163.807 229.799L173.668 225.914L174.564 226.213V225.615L177.553 224.719L178.15 224.42L178.748 224.719L179.047 224.121L179.645 224.42L179.943 223.822L181.438 223.225L182.035 223.523L182.334 222.926L182.932 223.225L183.23 222.627L183.828 222.926L184.127 222.328L184.725 222.627L185.023 222.029L185.621 222.328L185.92 221.73L186.518 222.029V221.432L190.104 220.535L190.701 220.834L191 220.236L191.598 220.535V219.938L193.092 219.639L193.689 219.938L193.988 219.34L194.586 219.639V219.041Z" fill="#F38458"/>
<path d="M322.484 577.934H325.174L327.564 579.129L329.357 581.221L329.955 583.312L329.656 586.002L328.461 587.795L326.668 589.289L324.875 589.887H322.783L320.393 588.99L318.301 586.6L317.703 584.807V582.715L318.898 580.324L320.99 578.531L322.484 577.934Z" fill="#FEFEFD"/>
<path d="M337.127 176.309H338.322V177.205L331.748 178.699L322.186 180.492L303.359 184.676H301.865V185.273L291.406 187.664L282.74 190.354L274.971 192.744L265.109 196.031L255.846 199.318L252.857 200.215L250.766 201.41L248.674 202.008L244.49 203.801L242.697 204.697L241.801 204.398L242.398 203.203H243.893L244.191 202.605L244.789 202.904L245.088 202.307L246.881 201.709L249.271 200.514L249.869 200.812V200.215L252.857 199.02L257.639 197.227L265.707 194.238L280.648 189.457L290.809 186.469L301.566 183.779L310.531 181.688L323.979 178.699L337.127 176.309Z" fill="#5A9D87"/>
<path d="M196.08 220.535L196.977 220.834L196.678 221.73L193.092 223.225L191.299 223.822V224.42L187.414 226.213H186.816L186.518 226.811H185.621L185.322 227.408L183.828 228.305H182.932L182.633 228.902L181.736 229.5H180.84L180.541 230.098L178.449 231.293H177.553L177.254 231.891L176.059 232.189L175.76 232.787L172.771 234.58H172.174L170.979 235.775L169.186 236.672L168.289 236.971L167.094 238.166L160.221 242.648L156.934 244.74L153.646 247.131L149.762 249.82L146.475 252.211L141.395 256.096L137.809 258.785L133.924 261.773L129.74 265.061L126.752 267.75L123.166 270.439L121.672 271.934L119.281 274.025L118.385 274.623H117.488L118.086 273.428L120.178 271.336L123.465 268.646L127.648 265.061L130.637 262.67L135.418 258.785L140.199 255.199L145.578 251.016L150.957 247.131L155.738 243.844L160.221 240.855L165.301 237.568L170.979 233.982L172.174 233.684L173.07 232.787L174.266 232.488L175.162 231.592H175.76L176.656 230.695L177.852 230.396L178.748 229.5L180.242 229.201L180.541 228.604L182.035 227.707H182.932L183.23 227.109L188.311 224.42L189.805 224.121L190.104 223.523L192.494 222.328L196.08 220.535Z" fill="#EF8459"/>
<path d="M205.045 450.334H205.344L205.643 464.678V494.561L204.746 496.055L201.758 496.951L194.885 498.445L186.518 499.939L179.645 500.537H171.875L167.99 499.939L166.795 498.744L163.807 491.572L159.623 482.01L155.738 473.045L152.152 464.678L152.451 463.781L155.439 470.355L159.025 478.723L161.715 484.699L165.898 494.262L167.393 497.848L168.588 499.043L170.381 499.342H181.139L189.805 498.445L198.77 496.652L203.252 495.457L204.447 495.158L204.746 476.631L205.045 450.334Z" fill="#113F3B"/>
<path d="M306.051 193.939L306.947 195.135V195.732L288.121 197.824L281.547 198.721L270.49 200.514L261.227 202.307L254.354 203.502L252.859 203.801V204.1L250.768 204.398L250.17 204.1V204.697L248.975 204.398V204.996L247.779 204.697V205.295L246.584 204.996V205.594L245.389 205.295L245.09 205.893L242.998 206.49L242.699 205.295L244.492 204.697L245.09 204.996V204.398L246.883 204.1L247.779 204.398V203.801L248.975 204.1V203.502L250.17 203.801V203.203L256.744 201.709L266.008 199.916L277.961 197.824L291.408 196.031L305.453 194.537H306.051V193.939Z" fill="#7BA18A"/>
<path d="M179.346 178.4H182.932L186.816 179.596L190.104 181.688L192.195 184.078L193.689 187.963L193.988 189.158V192.744L192.793 196.928L191.598 199.318L188.609 202.307L187.115 203.203L186.219 202.904L189.506 200.215L191.598 197.824L192.793 194.238V189.457L191.598 185.273L190.701 183.779L188.609 181.688L186.518 180.492L182.633 179.596H179.346L175.76 180.492L173.07 182.285L170.68 185.273L169.783 186.768L169.186 189.457V193.342L169.783 196.031L171.576 199.318L173.967 201.709L176.955 203.203L180.242 203.801H184.725V204.1L183.23 204.398H178.748L175.76 203.502L172.473 201.41L170.381 199.02L168.887 196.33L168.289 194.238V189.158L169.186 186.17L170.68 183.48L172.473 181.389L175.461 179.596L177.852 178.699L179.346 178.4Z" fill="#113F3B"/>
<path d="M231.939 159.275H237.617L241.502 160.77L243.295 161.965L245.686 164.654L247.479 168.24L248.076 170.93V173.619L246.881 177.803L245.387 180.492L243.893 182.285L240.605 184.377L236.422 185.572H233.434L229.549 184.377L226.859 182.883L223.871 179.596L222.676 177.205L222.078 175.113V169.436L222.975 166.447L225.066 163.459L227.756 161.068L231.043 159.574L231.939 159.275ZM231.641 160.172L228.951 161.367L226.262 163.459L224.17 165.85L222.975 169.137L222.676 170.93V173.918L223.273 176.906L224.469 179.297L225.963 181.09L228.951 183.48L231.939 184.676L236.721 184.975L240.904 183.779L243.594 181.688L245.387 179.596L246.881 176.607L247.479 174.217V170.332L246.283 166.746L244.49 164.057L243.295 162.562L240.904 161.068L238.215 160.172H231.641Z" fill="#113F3B"/>
<path d="M194.588 219.041L196.381 219.34L196.082 219.938L193.094 220.834L192.197 221.133L191.6 220.834V221.432L189.508 221.73L187.117 222.627L185.922 222.926L185.324 222.627V223.225L182.336 224.121L181.738 224.42L181.141 224.121L180.842 224.719L179.945 225.018L179.348 224.719L179.049 225.316L173.072 227.707L172.176 228.006L164.107 231.293L155.74 234.879L152.453 236.373L149.764 237.27L148.867 236.971L151.258 235.775L152.154 234.879L163.809 229.799L173.67 225.914L174.566 226.213V225.615L177.555 224.719L178.152 224.42L178.75 224.719L179.049 224.121L179.646 224.42L179.945 223.822L181.439 223.225L182.037 223.523L182.336 222.926L182.934 223.225L183.232 222.627L183.83 222.926L184.129 222.328L184.727 222.627L185.025 222.029L185.623 222.328L185.922 221.73L186.52 222.029V221.432L190.105 220.535L190.703 220.834L191.002 220.236L191.6 220.535V219.938L193.094 219.639L193.691 219.938L193.99 219.34L194.588 219.639V219.041Z" fill="#5DA08B"/>
<path d="M329.957 193.043H357.15V193.939L337.727 194.238L321.59 194.836L315.314 195.135H308.74L307.844 194.537L313.521 193.939L329.957 193.043Z" fill="#FBFDFC"/>
<path d="M215.207 189.158H218.195L217.598 190.951L215.207 194.537L214.609 195.732L212.219 195.434L207.438 193.939V193.043L210.127 190.951L213.713 189.457L215.207 189.158Z" fill="#F58458"/>
<path d="M337.129 176.309H338.324V177.205L331.75 178.699L322.188 180.492L304.855 184.377H303.959L303.66 183.182L318.602 179.895L328.762 177.803L337.129 176.309Z" fill="#FEFEFD"/>
<path d="M121.074 251.314L121.672 251.613L121.373 252.51H120.477L120.775 253.406L114.799 256.992L109.121 260.578L98.0645 268.049H97.168L97.4668 266.854L103.443 262.67L110.914 257.889L117.488 253.705L121.074 251.314Z" fill="#FEFEFD"/>
<path d="M302.465 183.48H304.258L303.959 184.377L301.867 184.676V185.273L291.408 187.664L282.742 190.354L277.662 191.848H276.766V190.652L288.719 187.066L301.568 183.779L302.465 183.48Z" fill="#F58458"/>
<path d="M306.049 193.939L306.945 195.135V195.732L288.119 197.824L281.545 198.721L277.66 199.02V198.721L279.453 198.422L274.672 198.721L275.867 198.123L291.406 196.031L305.451 194.537H306.049V193.939Z" fill="#F58458"/>
<path d="M196.08 220.535L196.977 220.834L196.678 221.73L193.092 223.225L191.299 223.822V224.42L187.414 226.213H186.816L186.518 226.811H185.621L185.322 227.408L183.828 228.305H182.932L182.633 228.902L181.736 229.5H180.84L180.541 230.098L178.449 231.293H177.553L177.254 231.891L176.059 232.189L175.76 232.787L172.771 234.58H172.174L170.979 235.775L169.186 236.672L166.496 237.867V237.27L169.484 235.477L171.576 233.684H172.174L173.07 232.787L174.266 232.488L175.162 231.592H175.76L176.656 230.695L177.852 230.396L178.748 229.5L180.242 229.201L180.541 228.604L182.035 227.707H182.932L183.23 227.109L188.311 224.42L189.805 224.121L190.104 223.523L192.494 222.328L196.08 220.535Z" fill="#F9E1D7"/>
<path d="M170.383 234.281L170.98 234.58L168.59 236.373L167.096 237.27H167.992L167.096 238.166L160.223 242.648L156.936 244.74L153.648 247.131L150.66 249.223L149.465 248.924L151.258 247.43L152.752 245.936L155.74 243.844L160.223 240.855L165.303 237.568L170.383 234.281Z" fill="#5E9C85"/>
<path d="M169.484 172.723H176.059V173.021L168.588 173.619L163.508 175.113L158.727 177.504L153.945 181.688L151.256 185.572L149.164 189.756L148.268 193.641L147.969 196.031V199.02L148.268 203.203L147.67 202.008L147.371 200.514V194.238L148.865 188.561L151.256 184.078L153.646 181.09L156.934 177.803L161.715 174.814L166.197 173.32L169.484 172.723Z" fill="#959375"/>
<path d="M217.299 112.359H217.598L217.299 115.945L216.402 122.818V136.863H215.805L215.207 133.875V122.818L216.402 113.256L217.299 112.359Z" fill="#26B8B0"/>
<path d="M194.588 219.041L196.381 219.34L196.082 219.938L193.094 220.834L192.197 221.133L191.6 220.834V221.432L189.508 221.73L187.117 222.627L185.922 222.926L185.324 222.627V223.225L182.336 224.121L181.738 224.42L181.141 224.121L180.842 224.719L179.945 225.018L179.348 224.719L179.049 225.316L173.072 227.707H170.98L171.578 227.109L173.67 226.512L173.969 225.914L174.566 226.213V225.615L177.555 224.719L178.152 224.42L178.75 224.719L179.049 224.121L179.646 224.42L179.945 223.822L181.439 223.225L182.037 223.523L182.336 222.926L182.934 223.225L183.232 222.627L183.83 222.926L184.129 222.328L184.727 222.627L185.025 222.029L185.623 222.328L185.922 221.73L186.52 222.029V221.432L190.105 220.535L190.703 220.834L191.002 220.236L191.6 220.535V219.938L193.094 219.639L193.691 219.938L193.99 219.34L194.588 219.639V219.041Z" fill="#FBDDD1"/>
<path d="M149.465 138.059L150.959 138.656L155.441 142.84L160.521 147.92L162.613 150.311L164.406 152.402L165.9 154.195L165.602 154.793L163.211 152.701L159.924 148.816L157.234 145.828L151.557 140.15L149.465 138.357V138.059Z" fill="#FEFEFD"/>
<path d="M287.822 187.664L288.42 187.963L287.822 188.859L277.662 191.848H276.766V190.652L285.73 187.963L287.822 187.664Z" fill="#A09171"/>
<path d="M253.455 198.721H255.248L255.846 199.318L252.857 200.215L250.766 201.41L248.674 202.008L244.49 203.801L242.697 204.697L241.801 204.398L242.398 203.203H243.893L244.191 202.605L244.789 202.904L245.088 202.307L246.881 201.709L249.271 200.514L249.869 200.812V200.215L252.857 199.02L253.455 198.721Z" fill="#FBDDD1"/>
<path d="M278.26 198.123H280.352L279.455 198.721H277.662V199.318L269.295 200.812H266.904L266.605 199.916L272.881 198.721L278.26 198.123Z" fill="#4F9F8A"/>
<path d="M252.262 202.605L254.354 202.904L254.055 203.801L252.859 204.1L250.768 204.398L250.17 204.1V204.697L248.975 204.398V204.996L247.779 204.697V205.295L246.584 204.996V205.594L245.389 205.295L245.09 205.893L242.998 206.49L242.699 205.295L244.492 204.697L245.09 204.996V204.398L246.883 204.1L247.779 204.398V203.801L248.975 204.1V203.502L250.17 203.801V203.203L252.262 202.605Z" fill="#FBDED2"/>
<path d="M166.199 135.967H167.096L169.486 149.713V150.311H168.889L167.693 145.529L166.498 138.357L166.199 135.967Z" fill="#D9F2F0"/>
<path d="M205.344 123.117L206.24 123.416L208.033 130.887L210.125 136.564L209.826 137.461L208.033 133.875L205.941 127.301L205.344 123.117Z" fill="#C4EBE8"/>
<path d="M157.832 232.787L158.131 233.385L156.637 233.982L155.74 234.879L152.453 236.373L149.764 237.27L148.867 236.971L151.258 235.775L152.154 234.879L156.039 233.086L157.832 232.787Z" fill="#569D88"/>
<path d="M162.91 230.098L163.807 230.396L163.508 230.994L164.105 231.293L156.934 234.281L156.336 233.982L158.129 233.385L156.934 232.787L160.52 231.293L162.91 230.098Z" fill="#7FA48D"/>
<path d="M260.928 196.031L261.824 196.33V197.227L256.744 199.02H254.055V198.422L260.928 196.031Z" fill="#53A28E"/>
<path d="M124.959 248.924H126.453L124.959 250.717L122.568 252.51L120.477 253.107V252.51L121.373 252.211L121.672 251.016L123.166 249.82L123.764 249.223L124.959 248.924Z" fill="#3FA797"/>
<path d="M217.598 204.697L218.793 205.295L220.287 207.686L219.988 208.881L217.896 209.18L217.598 208.582V204.697Z" fill="#F58458"/>
<path d="M194.586 219.041L196.379 219.34L196.08 219.938L193.092 220.834L192.195 221.133L191.598 220.834V221.432L189.506 221.73H188.609L188.908 221.133H189.506V220.535L190.701 220.834L191 220.236L191.598 220.535V219.938L193.092 219.639L193.689 219.938L193.988 219.34L194.586 219.639V219.041Z" fill="#FBDED2"/>
<path d="M287.822 187.664L288.42 187.963L287.822 188.859L284.834 189.756L281.547 190.055L282.145 189.457L283.938 189.158V188.561L285.73 187.963L287.822 187.664Z" fill="#5B9D86"/>
<path d="M302.463 183.48H304.256L303.957 184.377L301.865 184.676V185.273L297.383 185.572L298.279 184.975L300.371 184.676V184.078L302.463 183.48Z" fill="#4DB5A9"/>
<path d="M176.061 225.018L177.256 225.316V225.914L175.463 226.811L173.67 227.408L171.877 227.707L170.98 227.408L173.67 226.512L173.969 225.914L174.566 226.213V225.615L176.061 225.018Z" fill="#DDDACF"/>
<path d="M149.465 138.059L150.959 138.656L155.441 142.84L156.338 143.736V144.334L155.143 143.736L151.557 140.15L149.465 138.357V138.059Z" fill="#B4E6E3"/>
<path d="M252.26 202.605L254.352 202.904L254.053 203.801L252.857 204.1L250.766 204.398L250.168 204.1V204.697L248.973 204.1V203.502L250.168 203.801V203.203L252.26 202.605Z" fill="#CFCCBD"/>
<path d="M170.381 234.281L170.979 234.58L168.588 236.373L167.094 237.27H167.99L167.094 238.166L165.6 239.062H164.703L165.301 237.568L170.381 234.281Z" fill="#559D88"/>
<path d="M253.455 198.721H255.248L255.846 199.318L252.857 200.215L250.766 201.41L250.168 201.111L250.467 199.916L252.559 199.318L253.455 198.721Z" fill="#C9C1AE"/>
<path d="M263.914 194.836H266.305L266.006 195.732L265.109 196.031L262.121 196.928L261.523 196.33V195.732L263.914 194.836Z" fill="#AEC0AF"/>
<path d="M211.023 138.357L211.621 139.553L214.609 144.932L215.207 147.023L214.012 145.828L211.023 140.15V138.357Z" fill="#F58458"/>
<path d="M172.771 226.213L173.668 226.512L171.576 227.408L172.174 228.006L168.588 229.5L167.691 229.201L168.289 228.006L172.771 226.213Z" fill="#79A793"/>
<path d="M306.049 193.939L306.945 195.135V195.732H300.371V195.434L304.854 194.836L306.049 194.537V193.939Z" fill="#7F977B"/>
<path d="M180.242 223.523L181.139 223.822L180.84 224.719L179.943 225.018L179.346 224.719L179.047 225.316L177.254 225.914L176.656 225.316L176.955 224.719L178.15 224.42L178.748 224.719L179.047 224.121L179.645 224.42L179.943 223.822L180.242 223.523Z" fill="#FAD1C0"/>
<path d="M159.025 231.891L160.221 232.189L159.922 233.086L156.934 234.281L156.336 233.982L158.129 233.385L156.934 232.787L159.025 231.891Z" fill="#A39171"/>
<path d="M255.248 202.008L256.443 202.307L257.938 202.605V202.904L254.352 203.502V202.904L253.156 202.605L255.248 202.008Z" fill="#73997F"/>
<path d="M249.871 200.215L250.469 200.514V201.111H249.871L249.572 201.709L247.182 202.605L246.883 202.008L247.779 201.111L249.273 200.514L249.871 200.812V200.215Z" fill="#ECD6C8"/>
<path d="M170.381 234.879L171.277 235.477L169.186 236.672L166.496 237.867V237.27L169.484 235.477L170.381 234.879Z" fill="#ECE2D9"/>
<path d="M188.311 220.834L189.506 221.133L188.311 222.328L186.219 222.627L186.518 221.432L188.311 220.834Z" fill="#94BEAF"/>
<path d="M196.082 220.535L196.979 220.834L196.68 221.73L194.289 222.627L193.691 222.328L194.887 221.133L196.082 220.535Z" fill="#CCD3C8"/>
<path d="M266.605 193.939H268.1L268.398 194.836L265.709 195.434L264.812 194.537L266.605 193.939Z" fill="#739D85"/>
<path d="M164.107 173.918H166.498L165.303 174.516L162.016 175.711L161.418 175.412L161.717 174.814L164.107 173.918Z" fill="#669B83"/>
<path d="M164.703 237.867L165.301 238.166L164.703 239.062L165.301 239.361L163.508 240.258L162.91 239.062L164.703 237.867Z" fill="#A2AF99"/>
<path d="M205.344 123.117L206.24 123.416L206.539 126.703H205.941L205.344 123.117Z" fill="#AFE4E1"/>
<path d="M162.91 151.506H163.807L165.6 153.896V154.793L163.209 152.701L162.91 151.506Z" fill="#24B7AF"/>
<path d="M166.199 135.967H167.096L167.395 139.852L166.797 139.553L166.199 135.967Z" fill="#2DBAB3"/>
<path d="M176.059 225.018L177.254 225.316V225.914L175.461 226.811L174.863 226.512L175.162 225.316L176.059 225.018Z" fill="#93B3A1"/>
<path d="M256.742 201.709H259.133V202.605H256.145L256.742 201.709Z" fill="#3FA18F"/>
</svg>
